<svg class="svg-icon" style="width: 1em; height: 1em;vertical-align: middle;fill: currentColor;overflow: hidden;" viewBox="0 0 1024 1024" version="1.1" xmlns="http://www.w3.org/2000/svg"><path d="M287.1 51.8c22.6 0 41 18.3 41 41v98.1c0 22.6-18.3 41-41 41-22.6 0-41-18.3-41-41V92.7c0.1-22.6 18.4-40.9 41-40.9zM731.1 51.8c22.6 0 41 18.3 41 41v98.1c0 22.6-18.3 41-41 41-22.6 0-41-18.3-41-41V92.7c0-22.6 18.4-40.9 41-40.9z" fill="#242424" /><path d="M78.3 309.3h865.5c22.6 0 41 12 41 28V170.9c0-38.7-31.3-70-70-70H804V192c0 39.2-31.7 70.9-70.9 70.9s-70.9-31.7-70.9-70.9v-91.1H361V192c0 39.2-31.7 70.9-70.9 70.9s-70.9-31.7-70.9-70.9v-91.1H108.8c-38.7 0-70 31.3-70 70v168.4c4.8-17.3 20.7-30 39.5-30zM943.7 391.2H78.3c-18.8 0-34.7-12.7-39.5-30v543.4c0 38.7 31.3 70 70 70h805.9c38.7 0 70-31.3 70-70V364.3c-4 14.9-18.3 26.9-41 26.9z" fill="#242424" /><path d="M759.3 488.1c-16-16-41.9-16-57.9 0L456.1 733.4 332.2 609.5c-16-16-41.9-16-57.9 0s-16 41.9 0 57.9l150.5 150.5c8.6 8.6 20.1 12.6 31.4 11.9 11.3 0.7 22.8-3.3 31.4-11.9l271.8-271.8c15.9-16 15.9-42-0.1-58z" fill="#FFFFFF" /></svg>